# Blender v2.83.4 OBJ File: ''
# www.blender.org
mtllib Landing.mtl
o Cylinder
v 0.000000 1.078586 -5.000000
v 2.938926 0.019580 -4.045085
v 0.000000 0.019580 -5.000000
v 2.938926 1.078586 -4.045085
v 4.755282 0.019580 -1.545085
v 4.755282 1.078585 -1.545085
v 4.755282 0.019580 1.545085
v 4.755282 1.078586 1.545085
v 2.938926 0.019580 4.045085
v 2.938926 1.078585 4.045085
v 0.000000 0.019580 5.000000
v 0.000000 1.078585 5.000000
v -2.938927 0.019580 4.045085
v -2.938927 1.078585 4.045085
v -4.755282 0.019580 1.545086
v -4.755282 1.078586 1.545085
v -4.755282 0.019580 -1.545086
v -4.755282 1.078585 -1.545086
v -2.938925 0.019580 -4.045086
v -2.938925 1.078586 -4.045086
v -6.858410 1.078586 2.228433
v -6.858410 1.078585 -2.228434
v -4.238729 1.078586 -5.834114
v 0.000000 1.078585 -7.211359
v 4.238730 1.078586 -5.834112
v 6.858410 1.078585 -2.228432
v 6.858410 1.078586 2.228433
v 4.238730 1.078586 5.834113
v -0.000001 1.078586 7.211359
v -4.238731 1.078586 5.834112
v -4.238731 1.820994 5.834113
v -6.858410 1.820994 -2.228434
v 4.238730 1.820994 5.834114
v 6.858410 1.820994 -2.228432
v -0.000001 1.820995 7.211360
v 4.238730 1.820994 -5.834112
v 6.858410 1.820995 2.228432
v 0.000000 1.820994 -7.211359
v -4.238729 1.820994 -5.834114
v -6.858410 1.820995 2.228433
vt 0.508164 0.505199
vt 0.711935 0.431773
vt 0.508164 0.431773
vt 0.505199 0.221982
vt 0.431773 0.395320
vt 0.431773 0.221982
vt 0.505199 0.395320
vt 0.431773 0.609577
vt 0.505199 0.609577
vt 0.431773 0.782915
vt 0.711935 0.505199
vt 0.508164 0.431773
vt 0.711935 0.431773
vt 0.508164 0.505199
vt 0.304394 0.431773
vt 0.505199 0.782915
vt 0.431773 0.609577
vt 0.431773 0.782915
vt 0.505199 0.609577
vt 0.431773 0.395320
vt 0.505199 0.395320
vt 0.431773 0.221982
vt 0.304394 0.505199
vt 0.304394 0.431773
vt 0.711935 0.221982
vt 0.837872 0.609577
vt 0.178457 0.609577
vt 0.651613 0.358206
vt 0.555553 0.313683
vt 0.607098 0.296935
vt 0.555553 0.204453
vt 0.607098 0.221200
vt 0.619757 0.116083
vt 0.651613 0.159929
vt 0.723642 0.082329
vt 0.723642 0.136526
vt 0.840186 0.221200
vt 0.827526 0.116083
vt 0.891730 0.204453
vt 0.891730 0.313683
vt 0.840186 0.296935
vt 0.795670 0.159930
vt 0.827526 0.402052
vt 0.795670 0.358206
vt 0.723642 0.381610
vt 0.723642 0.435806
vt 0.619757 0.402052
vt 0.508164 0.505199
vt 0.214272 0.556674
vt 0.214272 0.505199
vt 0.555553 0.204453
vt 0.827526 0.402052
vt 0.891730 0.204453
vt 0.802057 0.505199
vt 0.508164 0.556674
vt 0.505199 0.656957
vt 0.556674 0.906957
vt 0.505199 0.906957
vt 0.508164 0.505199
vt 0.802057 0.556674
vt 0.802057 0.505199
vt 0.505199 0.347940
vt 0.556674 0.656957
vt 0.505199 0.097940
vt 0.556674 0.347940
vt 0.214272 0.505199
vt 0.508164 0.556674
vt 0.505199 0.347940
vt 0.556674 0.097940
vt 0.505199 0.097940
vt 0.505199 0.656957
vt 0.556674 0.347940
vt 0.505199 0.906957
vt 0.556674 0.656957
vt 0.711935 0.505199
vt 0.505199 0.782915
vt 0.304394 0.505199
vt 0.505199 0.221982
vt 0.304394 0.221982
vt 0.508164 0.155773
vt 0.837872 0.395320
vt 0.711935 0.782915
vt 0.508164 0.849124
vt 0.304394 0.782915
vt 0.178457 0.395320
vt 0.827526 0.116083
vt 0.723642 0.082329
vt 0.619757 0.116083
vt 0.555553 0.313683
vt 0.619757 0.402052
vt 0.723642 0.435806
vt 0.891730 0.313683
vt 0.802057 0.556674
vt 0.556674 0.097940
vt 0.214272 0.556674
vt 0.556674 0.906957
vn 0.0000 -0.7837 -0.6211
vn 0.4498 -0.6437 -0.6191
vn 0.0000 -0.6437 -0.7653
vn 0.3651 -0.7837 -0.5025
vn 0.7278 -0.6437 -0.2365
vn 0.5907 -0.7837 -0.1919
vn 0.7278 -0.6437 0.2365
vn 0.5907 -0.7837 0.1919
vn 0.4498 -0.6437 0.6191
vn 0.3651 -0.7837 0.5025
vn 0.0000 -0.6437 0.7653
vn 0.0000 -0.7837 0.6211
vn -0.4498 -0.6437 0.6191
vn -0.3651 -0.7837 0.5025
vn -0.7278 -0.6437 0.2365
vn -0.5907 -0.7837 0.1919
vn -0.7278 -0.6437 -0.2365
vn -0.5907 -0.7837 -0.1919
vn -0.4498 -0.6437 -0.6191
vn -0.3651 -0.7837 -0.5025
vn -0.4498 0.6437 0.6191
vn -0.7278 0.6437 -0.2365
vn 0.4498 0.6437 0.6191
vn 0.7278 0.6437 -0.2365
vn 0.0000 0.6437 0.7653
vn 0.4498 0.6437 -0.6191
vn 0.7278 0.6437 0.2365
vn 0.0000 0.6437 -0.7653
vn -0.4498 0.6437 -0.6191
vn -0.7278 0.6437 0.2365
usemtl HeliPad
s 1
f 1/1/1 2/2/2 3/3/3
f 4/4/4 5/5/5 2/6/2
f 6/7/6 7/8/7 5/5/5
f 8/9/8 9/10/9 7/8/7
f 10/11/10 11/12/11 9/13/9
f 12/14/12 13/15/13 11/12/11
f 14/16/14 15/17/15 13/18/13
f 16/19/16 17/20/17 15/17/15
f 18/21/18 19/22/19 17/20/17
f 20/23/20 3/3/3 19/24/19
f 2/25/2 7/26/7 15/27/15
f 14/28/14 21/29/15 16/30/16
f 16/30/16 22/31/17 18/32/18
f 18/32/18 23/33/19 20/34/20
f 20/34/20 24/35/3 1/36/1
f 6/37/6 25/38/2 26/39/5
f 6/37/6 27/40/7 8/41/8
f 1/36/1 25/38/2 4/42/4
f 8/41/8 28/43/9 10/44/10
f 12/45/12 28/43/9 29/46/11
f 12/45/12 30/47/13 14/28/14
f 29/48/11 31/49/21 30/50/13
f 32/51/22 33/52/23 34/53/24
f 28/54/9 35/55/25 29/48/11
f 27/56/7 33/57/23 28/58/9
f 24/59/3 36/60/26 25/61/2
f 26/62/5 37/63/27 27/56/7
f 25/64/2 34/65/24 26/62/5
f 23/66/19 38/67/28 24/59/3
f 22/68/17 39/69/29 23/70/19
f 21/71/15 32/72/22 22/68/17
f 30/73/13 40/74/30 21/71/15
f 1/1/1 4/75/4 2/2/2
f 4/4/4 6/7/6 5/5/5
f 6/7/6 8/9/8 7/8/7
f 8/9/8 10/76/10 9/10/9
f 10/11/10 12/14/12 11/12/11
f 12/14/12 14/77/14 13/15/13
f 14/16/14 16/19/16 15/17/15
f 16/19/16 18/21/18 17/20/17
f 18/21/18 20/78/20 19/22/19
f 20/23/20 1/1/1 3/3/3
f 19/79/19 3/80/3 2/25/2
f 2/25/2 5/81/5 7/26/7
f 7/26/7 9/82/9 15/27/15
f 9/82/9 11/83/11 15/27/15
f 11/83/11 13/84/13 15/27/15
f 15/27/15 17/85/17 19/79/19
f 19/79/19 2/25/2 15/27/15
f 14/28/14 30/47/13 21/29/15
f 16/30/16 21/29/15 22/31/17
f 18/32/18 22/31/17 23/33/19
f 20/34/20 23/33/19 24/35/3
f 6/37/6 4/42/4 25/38/2
f 6/37/6 26/39/5 27/40/7
f 1/36/1 24/35/3 25/38/2
f 8/41/8 27/40/7 28/43/9
f 12/45/12 10/44/10 28/43/9
f 12/45/12 29/46/11 30/47/13
f 29/48/11 35/55/25 31/49/21
f 34/53/24 36/86/26 32/51/22
f 36/86/26 38/87/28 32/51/22
f 38/87/28 39/88/29 32/51/22
f 32/51/22 40/89/30 31/90/21
f 31/90/21 35/91/25 32/51/22
f 35/91/25 33/52/23 32/51/22
f 33/52/23 37/92/27 34/53/24
f 28/54/9 33/93/23 35/55/25
f 27/56/7 37/63/27 33/57/23
f 24/59/3 38/67/28 36/60/26
f 26/62/5 34/65/24 37/63/27
f 25/64/2 36/94/26 34/65/24
f 23/66/19 39/95/29 38/67/28
f 22/68/17 32/72/22 39/69/29
f 21/71/15 40/74/30 32/72/22
f 30/73/13 31/96/21 40/74/30
